<svg width="1200" height="1097" viewBox="0 0 1200 1097" fill="none" xmlns="http://www.w3.org/2000/svg">
<path fill-rule="evenodd" clip-rule="evenodd" d="M812.781 -32.1957C809.213 -28.4542 804.267 -23.953 801.792 -22.1938C799.318 -20.4345 796.031 -17.3297 794.491 -15.2935C791.145 -10.8713 784.843 -6.46207 779.887 -5.07363C777.201 -4.32193 774.958 -2.36472 771.01 2.66926C763.192 12.6443 759.672 25.72 762.268 35.1462C762.857 37.2844 762.682 37.8951 761.482 37.8951C760.633 37.8951 758.633 39.4775 757.038 41.4107L754.139 44.9273L750.716 42.4113C748.833 41.0289 745.981 39.1086 744.378 38.146C742.773 37.1834 739.789 34.9293 737.745 33.137C735.7 31.3438 730.074 28.0521 725.243 25.821C720.348 23.5609 713.323 19.2026 709.375 15.9799C688.8 -0.823334 653.933 -18.7451 632.292 -23.6402C628.992 -24.3869 623.818 -25.8753 620.792 -26.9468C609.026 -31.1172 579.169 -34.119 546.781 -34.3889C523.086 -34.5858 482.855 -32.0928 468.292 -29.5258C463.892 -28.7501 458.428 -28.1074 456.151 -28.0964C452.799 -28.0824 451.085 -27.3107 447.151 -24.047C444.478 -21.8299 441.167 -19.7657 439.792 -19.4608C429.05 -17.0718 421.107 -12.7705 406.792 -1.58903C401.567 2.49233 393.917 7.70824 389.792 10.0023C385.667 12.2954 378.692 16.2258 374.292 18.7368C369.892 21.2478 362.467 25.3632 357.792 27.8831C353.117 30.4031 347.312 33.9117 344.892 35.68C342.472 37.4483 339.899 38.8947 339.175 38.8947C338.451 38.8947 335.623 40.8789 332.892 43.3049C330.16 45.73 326.936 48.028 325.727 48.4109C322.916 49.3035 309.647 58.2849 307.283 60.8959C305.406 62.969 302.792 63.5758 302.792 61.9375C302.792 61.4157 303.993 57.2553 305.461 52.6912C309.033 41.5906 309.295 25.1882 306.081 14.1117C304.917 10.1023 303.555 6.27881 303.054 5.61508C302.552 4.95135 301.594 2.49234 300.924 0.150276C299.426 -5.08562 293.716 -11.1392 290.957 -10.4185C288.385 -9.74575 284.065 -12.1098 279.846 -16.498C277.95 -18.4692 275.744 -20.0816 274.942 -20.0816C274.14 -20.0816 270.615 -21.685 267.109 -23.6452C261.864 -26.577 258.212 -27.6516 246.513 -29.7027C237.774 -31.2351 229.836 -32.0548 225.922 -31.8309C220.255 -31.507 219.32 -31.1482 217.45 -28.5832C216.294 -26.9978 214.01 -24.5478 212.373 -23.1404C210.737 -21.7329 206.61 -18.1074 203.202 -15.0836C199.794 -12.0598 195.17 -8.36131 192.926 -6.86591C186.791 -2.77555 183.198 2.79821 182.418 9.43254C182.054 12.5233 180.918 16.7056 179.893 18.7268C178.868 20.748 177.719 25.1022 177.341 28.4039C176.772 33.3609 177.028 35.2752 178.808 39.3995C180.309 42.8751 180.807 45.588 180.448 48.3269C179.87 52.7352 181.269 56.1428 185.141 59.7573C186.537 61.0618 189.277 66.2347 191.229 71.2527C195.971 83.4408 197.928 86.3946 202.969 88.9646C205.309 90.1581 209.076 93.04 211.34 95.368C218.632 102.868 230.619 105.758 242.797 102.953C258.75 99.2794 257.309 104.286 238.357 118.38C224.794 128.466 222.817 130.564 218.804 139.12C216.619 143.779 214.733 146.348 212.742 147.377C211.152 148.199 207.26 150.686 204.093 152.904C197.249 157.695 194.238 157.772 191.306 153.228C189.755 150.826 187.743 149.606 182.555 147.926C178.85 146.726 174.487 144.624 172.859 143.256C169.868 140.74 153.346 135.856 147.828 135.856C146.236 135.856 143.196 134.357 140.451 132.22L135.782 128.584L128.196 129.27C122.356 129.8 119.457 129.575 115.606 128.297C111.354 126.885 109.708 126.812 104.625 127.812C99.6505 128.791 97.2515 128.711 90.3345 127.339C82.6905 125.823 81.7715 125.819 78.9165 127.295C77.2095 128.178 74.9455 130.598 73.8865 132.673C71.6125 137.128 65.2425 143.206 57.3685 148.432C53.7995 150.801 49.8425 154.749 46.6715 159.107C42.4755 164.875 40.6955 166.435 35.9655 168.495C32.8455 169.854 28.8365 171.601 27.0575 172.379C23.3035 174.02 15.6755 183.824 12.0255 191.699C9.88548 196.316 9.62948 197.933 10.1815 203.323C11.0565 211.86 9.42948 218.838 5.73848 222.373C3.47248 224.543 2.79248 226.086 2.79248 229.058C2.79248 231.183 2.06648 236.113 1.17848 240.013C-1.05152 249.815 -0.342518 253.901 5.26148 263.541C9.23748 270.382 9.92248 272.286 9.39248 275.021C7.30248 285.795 7.40948 287.613 10.2775 290.009C19.3255 297.571 21.0735 299.585 24.2965 306.158C26.3275 310.303 28.4525 316.835 29.3745 321.77C32.8605 340.428 42.6545 352.124 56.6665 354.364C60.5285 354.981 60.7345 355.2 61.3565 359.342C61.7135 361.725 62.5205 364.332 63.1495 365.136C64.6945 367.111 83.7135 376.759 86.0635 376.759C87.0935 376.759 89.9445 377.936 92.3985 379.373C96.5775 381.821 97.4765 381.958 106.576 381.529C112.981 381.226 117.314 380.508 119.292 379.421C122.3 377.767 129.208 377.214 132.257 378.383C133.152 378.726 135.034 381.275 136.44 384.047C140.585 392.225 139.507 395.647 125.99 417.21C117.484 430.777 112.477 441.063 107.938 454.293C104.095 465.494 97.7925 489.85 97.7915 493.505C97.7915 494.994 96.4005 499.135 94.7005 502.708C90.3875 511.776 88.0725 527.67 86.5465 558.686C84.9125 591.896 84.8845 631.134 86.4915 635.155C87.1515 636.805 88.6545 642.301 89.8315 647.37C91.8725 656.157 91.8965 656.818 90.3315 661.528C88.6665 666.537 87.4135 667.642 83.3975 667.642C82.1705 667.642 79.8445 669.038 78.2295 670.742C76.6145 672.447 71.2425 677.236 66.2925 681.385C61.3425 685.533 56.7815 689.873 56.1575 691.03C55.5335 692.186 54.7155 695.606 54.3395 698.63C53.9635 701.654 52.9715 706.277 52.1345 708.903C50.7225 713.336 50.7635 714.359 52.7035 723.176C53.8525 728.4 56.0805 735.247 57.6555 738.393C59.2295 741.538 61.0915 745.911 61.7935 748.11C63.5165 753.507 65.8995 756.873 73.6935 764.918C79.0905 770.49 82.4245 772.822 92.0035 777.723C103.239 783.472 108.792 787.951 108.792 791.265C108.792 792.1 107.954 793.977 106.93 795.437C105.807 797.037 104.841 800.668 104.496 804.587C104.181 808.161 102.816 813.784 101.464 817.082C100.112 820.381 98.7055 825.626 98.3385 828.739C97.7225 833.963 97.9535 834.936 101.351 841.42C104.663 847.741 104.92 848.764 103.912 851.654C102.216 856.516 102.431 857.15 107.37 861.881C111.146 865.498 112.459 867.788 114.87 874.959C116.477 879.74 117.792 884.468 117.792 885.466C117.792 887.987 122.994 894.274 128.056 897.872C130.386 899.527 134.317 902.769 136.792 905.075C142.427 910.326 153.897 916.594 164.164 920.034C172.892 922.958 179.999 923.047 200.292 920.484C215.339 918.583 224.605 918.699 228.908 920.841C231.847 922.304 233.194 924.08 236.107 930.337C238.077 934.57 240.672 940.732 241.873 944.031C244.797 952.062 248.865 956.837 260.277 965.639C272.778 975.279 277.865 978.117 285.989 979.98C293.581 981.721 308.973 981.999 316.7 980.534C325.452 978.875 358.516 979.101 364.839 980.862C373.93 983.396 381.731 983.829 386.668 982.073C393.613 979.603 395.733 980.021 400.311 984.765C404.784 989.398 416.693 999.398 422.167 1003.12C431.049 1009.15 455.038 1015.39 475.126 1016.9C479.435 1017.23 489.784 1018.67 498.126 1020.1C511.132 1022.34 515.358 1022.65 527.792 1022.27C540.078 1021.9 542.929 1022.1 546.456 1023.59C548.745 1024.56 555.711 1026.77 561.935 1028.49C568.159 1030.22 573.846 1032.13 574.573 1032.73C575.526 1033.52 575.713 1035.28 575.246 1039.02C574.61 1044.11 574.684 1044.3 579.118 1049.29C582.708 1053.33 584.19 1056.19 586.313 1063.15C589.237 1072.73 590.395 1074.19 603.087 1084.27C617.755 1095.92 630.786 1098.81 649.531 1094.56C654.613 1093.41 662.21 1092.47 666.413 1092.47C675.216 1092.47 686.034 1089.22 701.695 1081.87C713.159 1076.49 719.408 1071.85 725.175 1064.43C730.936 1057.01 732.839 1056.57 738.139 1061.43C740.423 1063.53 744.699 1066.08 747.641 1067.11C751.82 1068.57 753.401 1069.75 754.87 1072.48C755.903 1074.4 757.375 1076.77 758.144 1077.75C759.627 1079.62 769.101 1083.78 774.566 1084.94C776.367 1085.33 779.26 1086.84 780.995 1088.3C786.045 1092.55 794.227 1092.46 817.297 1087.94C833.103 1084.84 838.307 1084.23 848.292 1084.29C861.717 1084.37 865.266 1083.29 877.31 1075.46C880.62 1073.31 888.111 1069.77 893.957 1067.61C899.803 1065.44 905.741 1062.91 907.154 1061.98C909.534 1060.42 910.188 1060.42 916.071 1061.89C919.563 1062.77 924.062 1063.48 926.068 1063.48C931.633 1063.48 940.807 1067.32 945.521 1071.62C947.846 1073.74 950.688 1075.48 951.836 1075.48C952.984 1075.48 957.761 1077.5 962.453 1079.98C970.414 1084.17 971.496 1084.47 978.644 1084.47C982.857 1084.47 992.151 1083.76 999.298 1082.89C1006.45 1082.02 1015.67 1081.2 1019.79 1081.07C1041.91 1080.39 1068.91 1064.4 1076.53 1047.47C1078.14 1043.88 1079.8 1039.6 1080.21 1037.97C1080.62 1036.33 1083.45 1029.84 1086.5 1023.54C1091.71 1012.77 1092.19 1011.14 1094.42 996.547C1096.52 982.727 1097.27 980.026 1101.18 972.02C1105.68 962.821 1106.08 961.426 1109.88 941.538C1111.98 930.586 1112.02 929.303 1110.8 914.049C1109.69 900.097 1109.17 897.346 1106.78 892.552C1105.27 889.528 1103.06 883.502 1101.88 879.158C1100.69 874.816 1098.89 870.093 1097.89 868.662C1096.88 867.233 1095.76 865.11 1095.4 863.945C1095.04 862.781 1093.85 861.025 1092.77 860.042C1091.68 859.059 1090.79 857.158 1090.79 855.817C1090.79 854.475 1094.13 846.335 1098.2 837.729C1105.99 821.27 1106.53 819.528 1109.83 799.649C1111.55 789.317 1112.49 786.274 1115.34 781.656C1117.22 778.6 1120.95 769.801 1123.62 762.104C1126.29 754.407 1129.22 746.67 1130.13 744.911C1131.05 743.151 1131.79 741.119 1131.79 740.395C1131.79 739.67 1132.91 737.439 1134.27 735.437C1135.63 733.435 1137.15 729.984 1137.65 727.768C1138.15 725.553 1139.51 722.519 1140.69 721.027C1141.86 719.535 1143.98 714.448 1145.4 709.721C1146.82 704.995 1149.29 698.774 1150.89 695.896C1152.49 693.018 1153.79 689.793 1153.79 688.73C1153.79 687.666 1154.44 685.523 1155.23 683.967C1159.32 675.882 1164.8 655.239 1167.24 638.654C1170.63 615.636 1171.42 611.639 1174.44 602.279C1176.3 596.512 1176.81 593.278 1176.36 590.244C1175.97 587.679 1176.27 584.575 1177.14 582.113C1178.07 579.474 1178.31 576.583 1177.85 573.539C1177.46 571.014 1177.48 568.065 1177.88 566.987C1178.28 565.907 1178.9 560.112 1179.27 554.109C1179.88 544.091 1179.73 542.616 1177.47 536.195C1176.11 532.347 1174.47 526.499 1173.82 523.2C1173.18 519.902 1170.9 511.355 1168.75 504.208C1166.61 497.061 1164.16 488.208 1163.32 484.536C1162.47 480.862 1160.21 474.578 1158.29 470.569C1156.36 466.561 1154.79 462.659 1154.79 461.899C1154.79 461.139 1151.62 451.103 1147.75 439.597C1142.3 423.418 1140.28 415.796 1138.84 405.964C1133.35 368.491 1123.71 331.6 1112.79 306.287C1110.18 300.24 1107.48 293.492 1106.8 291.293C1104.85 284.98 1095.48 266.67 1090.08 258.637C1087.37 254.607 1083.48 248.104 1081.42 244.184C1079.36 240.266 1075.11 234.055 1071.98 230.383C1068.85 226.71 1064.82 221.819 1063.02 219.514C1055.22 209.536 1053.22 207.443 1045.47 201.195C1040.97 197.567 1035.23 192.064 1032.71 188.967C1024.89 179.364 1014.87 169.657 999.792 157.092C991.818 150.446 983.267 142.825 980.792 140.155C977.17 136.249 974.75 134.74 968.387 132.422C963.458 130.627 958.424 127.867 955.017 125.093C952.011 122.645 947.469 119.741 944.922 118.639C939.336 116.219 933.792 111.192 933.792 108.544C933.792 107.482 935.558 103.41 937.717 99.4934C939.876 95.5769 942.305 90.574 943.115 88.3748C943.925 86.1757 945.531 82.0174 946.685 79.1346C947.914 76.0558 949.419 68.3789 950.328 60.537L951.878 47.1824L948.269 38.9797C946.285 34.4685 944.221 27.9931 943.68 24.5895C943.14 21.1868 941.381 15.858 939.771 12.7472C938.162 9.63646 936.548 5.23523 936.185 2.96614C934.917 -4.96367 929.247 -9.08601 919.609 -9.08601C914.502 -9.08601 914.214 -9.24295 908.827 -14.9657C905.138 -18.8841 901.958 -21.2581 899.292 -22.0858C897.092 -22.7685 894.392 -24.118 893.292 -25.0856C890.034 -27.9514 885.749 -29.7127 877.792 -31.458C873.667 -32.3627 869.054 -33.7451 867.54 -34.5308C864.712 -35.9982 849.714 -37.5926 830.281 -38.4902L819.271 -39L812.781 -32.1957ZM1111.64 136.534C1110.73 136.77 1108.73 138.778 1107.19 140.995C1105.66 143.212 1102.53 146.31 1100.25 147.879C1097.97 149.448 1094.79 152.228 1093.18 154.057C1091.58 155.886 1088.18 158.602 1085.64 160.092C1078.93 164.02 1074.79 170.686 1074.79 177.56C1074.79 180.517 1074.12 184.244 1073.29 185.844C1072.46 187.443 1071.32 192.097 1070.75 196.186C1069.79 203.063 1069.88 203.941 1071.96 207.928C1073.51 210.891 1074.15 213.699 1074.01 216.911C1073.87 220.145 1074.29 221.988 1075.38 222.895C1078.63 225.587 1082.82 232.829 1084.2 238.119C1084.98 241.125 1086.33 244.946 1087.19 246.608C1089.03 250.163 1095.34 255.631 1098.54 256.449C1099.78 256.765 1100.79 257.67 1100.79 258.461C1100.79 261.195 1105.4 264.479 1113.66 267.633C1123.37 271.337 1125.19 271.424 1137.69 268.786C1142.87 267.696 1150.19 266.803 1153.98 266.803C1161.94 266.803 1166.39 264.919 1176.77 257.143L1183.25 252.291L1185.28 243.721C1186.58 238.19 1188.29 233.856 1190.09 231.496C1191.62 229.486 1194.43 223.144 1196.33 217.403C1201.41 202.09 1201.21 195.738 1195.1 177.017C1189.36 159.43 1187.05 156.296 1180.54 157.233C1175.58 157.946 1175.16 157.706 1171.52 152.099C1170 149.762 1168.17 147.851 1167.44 147.851C1166.71 147.851 1161.71 146.014 1156.33 143.769C1150.37 141.28 1144.36 139.501 1140.93 139.213C1137.83 138.954 1133.49 138.343 1131.29 137.856C1126.44 136.781 1113.93 135.941 1111.64 136.534ZM363.475 621.849C363.156 622.645 362.919 622.408 362.871 621.244C362.828 620.19 363.064 619.6 363.396 619.932C363.728 620.264 363.764 621.127 363.475 621.849Z" fill="#F7F6F0"/>
<circle cx="599.663" cy="528.796" r="415.37" stroke="white" stroke-width="25"/>
<path d="M842.64 707.202H358.35C353.741 707.202 350 710.934 350 715.551C350 747.774 376.218 774 408.449 774H792.541C824.771 774 850.99 747.773 850.99 715.551C850.99 710.934 847.257 707.202 842.64 707.202ZM792.54 757.301H408.449C388.292 757.301 371.417 742.93 367.543 723.901H833.447C829.572 742.93 812.705 757.301 792.54 757.301Z" fill="#FF5D28"/>
<path d="M767.491 531.855H433.497C410.477 531.855 391.748 550.584 391.748 573.604V715.551C391.748 720.169 395.489 723.901 400.098 723.901H800.89C805.507 723.901 809.24 720.16 809.24 715.551V573.604C809.24 550.584 790.512 531.855 767.491 531.855ZM408.449 707.202V573.604C408.449 559.794 419.688 548.555 433.498 548.555H767.492C781.303 548.555 792.542 559.794 792.542 573.604V707.202H408.449Z" fill="#FF5D28"/>
<path d="M692.342 381.558H508.646C485.626 381.558 466.897 400.286 466.897 423.307V540.205C466.897 544.823 470.638 548.555 475.247 548.555H725.742C730.36 548.555 734.092 544.814 734.092 540.205V423.307C734.092 400.286 715.363 381.558 692.342 381.558ZM717.392 531.855H483.596V423.307C483.596 409.496 494.836 398.257 508.646 398.257H692.342C706.153 398.257 717.392 409.496 717.392 423.307V531.855Z" fill="#FF5D28"/>
<path d="M800.874 623.711C800.858 623.711 800.832 623.711 800.808 623.711C793.718 623.711 786.78 620.839 781.762 615.813C781.745 615.796 781.72 615.779 781.72 615.763C764.653 598.729 736.889 598.745 719.873 615.779C709.302 626.267 692.11 626.258 681.539 615.787C681.53 615.779 681.522 615.771 681.522 615.762C664.455 598.728 636.692 598.744 619.675 615.778C609.104 626.266 591.904 626.257 581.341 615.786C581.332 615.778 581.332 615.77 581.324 615.761C564.257 598.727 536.503 598.743 519.477 615.777C508.898 626.256 491.714 626.256 481.143 615.785C481.135 615.777 481.135 615.769 481.127 615.76C464.059 598.718 436.296 598.735 419.245 615.81C414.235 620.828 407.297 623.708 400.2 623.708C400.183 623.708 400.158 623.708 400.133 623.708L400.091 640.408C400.124 640.408 400.166 640.408 400.2 640.408C411.706 640.408 422.953 635.748 431.069 627.608C441.606 617.046 458.773 617.037 469.328 627.582C469.344 627.599 469.361 627.615 469.378 627.632C486.428 644.549 514.183 644.549 531.267 627.607C541.812 617.045 558.971 617.036 569.525 627.581C569.542 627.598 569.559 627.614 569.575 627.631C586.626 644.548 614.389 644.548 631.456 627.606C641.984 617.068 659.094 617.035 669.656 627.514C669.714 627.572 669.781 627.639 669.847 627.705C686.898 644.53 714.594 644.506 731.644 627.597C742.182 617.059 759.283 617.026 769.845 627.505C769.903 627.564 769.961 627.621 770.02 627.68C778.136 635.763 789.349 640.397 800.806 640.397C800.839 640.397 800.872 640.397 800.923 640.406L800.874 623.711Z" fill="#FF5D28"/>
<path d="M719.813 461.173C709.268 471.711 692.109 471.702 681.529 461.123C664.478 444.224 636.732 444.207 619.614 461.173C614.513 466.283 607.725 469.089 600.502 469.089C600.493 469.089 600.486 469.089 600.486 469.089C593.254 469.08 586.466 466.267 581.331 461.122C564.323 444.247 536.659 444.197 519.601 460.988C519.542 461.047 519.475 461.105 519.417 461.164C514.307 466.273 507.518 469.079 500.296 469.079C500.287 469.079 500.279 469.079 500.279 469.079C493.048 469.079 486.251 466.257 481.149 461.146L469.335 472.944C486.343 489.978 513.998 490.028 531.073 473.119C531.123 473.069 531.173 473.027 531.223 472.977C541.794 462.489 558.987 462.498 569.532 472.952C577.799 481.218 588.779 485.777 600.468 485.786C600.476 485.786 600.485 485.786 600.493 485.786C612.175 485.786 623.155 481.244 631.429 472.977C642.017 462.489 659.209 462.498 669.747 472.952C686.797 490.002 714.552 490.027 731.652 472.952L719.813 461.173Z" fill="#FF5D28"/>
<path d="M525.346 423.299H508.646V439.998H525.346V423.299Z" fill="#FF5D28"/>
<path d="M567.095 414.948H550.395V431.648H567.095V414.948Z" fill="#FF5D28"/>
<path d="M608.844 423.299H592.145V439.998H608.844V423.299Z" fill="#FF5D28"/>
<path d="M650.593 414.948H633.894V431.648H650.593V414.948Z" fill="#FF5D28"/>
<path d="M692.342 423.299H675.643V439.998H692.342V423.299Z" fill="#FF5D28"/>
<path d="M525.346 573.596H508.646V590.295H525.346V573.596Z" fill="#FF5D28"/>
<path d="M567.095 565.246H550.395V581.945H567.095V565.246Z" fill="#FF5D28"/>
<path d="M608.844 573.596H592.145V590.295H608.844V573.596Z" fill="#FF5D28"/>
<path d="M650.593 565.246H633.894V581.945H650.593V565.246Z" fill="#FF5D28"/>
<path d="M692.342 573.596H675.643V590.295H692.342V573.596Z" fill="#FF5D28"/>
<path d="M441.847 573.596H425.148V590.295H441.847V573.596Z" fill="#FF5D28"/>
<path d="M483.596 565.246H466.897V581.945H483.596V565.246Z" fill="#FF5D28"/>
<path d="M734.092 565.246H717.392V581.945H734.092V565.246Z" fill="#FF5D28"/>
<path d="M775.841 573.596H759.142V590.295H775.841V573.596Z" fill="#FF5D28"/>
<path d="M617.194 331.459H583.794C579.185 331.459 575.444 335.2 575.444 339.808V389.907C575.444 394.516 579.185 398.257 583.794 398.257H617.194C621.811 398.257 625.543 394.516 625.543 389.907V339.808C625.544 335.2 621.811 331.459 617.194 331.459ZM608.844 381.558H592.145V348.158H608.844V381.558Z" fill="#FF5D28"/>
<path d="M621.903 297.317C619.481 287.58 613.403 279.365 604.795 274.196C602.157 272.601 598.842 272.601 596.203 274.196C590.942 277.353 586.492 281.803 583.344 287.055C572.673 304.815 578.434 327.944 596.195 338.615C597.523 339.408 599.009 339.808 600.495 339.808C601.982 339.808 603.476 339.407 604.796 338.615C610.056 335.458 614.499 331.008 617.655 325.756C622.822 317.156 624.333 307.061 621.903 297.317ZM603.333 317.164C602.523 318.508 601.571 319.752 600.486 320.879C597.981 318.282 596.185 315.059 595.292 311.461C593.939 306.05 594.782 300.439 597.655 295.655C598.456 294.311 599.417 293.067 600.502 291.94C603.007 294.537 604.803 297.76 605.696 301.358C607.049 306.768 606.214 312.38 603.333 317.164Z" fill="#FF5D28"/>
<path d="M550.395 331.459H516.996C512.387 331.459 508.646 335.2 508.646 339.808V389.907C508.646 394.516 512.387 398.257 516.996 398.257H550.395C555.013 398.257 558.745 394.516 558.745 389.907V339.808C558.745 335.2 555.004 331.459 550.395 331.459ZM542.046 381.558H525.347V348.158H542.046V381.558Z" fill="#FF5D28"/>
<path d="M538.005 274.195C535.349 272.609 532.042 272.609 529.404 274.195C524.144 277.352 519.694 281.802 516.546 287.054C505.875 304.814 511.636 327.943 529.397 338.614C530.724 339.407 532.211 339.807 533.697 339.807C535.191 339.807 536.678 339.406 537.998 338.614C543.258 335.457 547.708 331.007 550.856 325.755C561.526 307.996 555.765 284.867 538.005 274.195ZM536.535 317.164C535.733 318.508 534.774 319.752 533.687 320.879C531.182 318.282 529.387 315.059 528.493 311.461C527.141 306.05 527.984 300.439 530.857 295.655C531.658 294.311 532.619 293.067 533.704 291.94C536.209 294.537 538.005 297.76 538.898 301.358C540.25 306.768 539.407 312.38 536.535 317.164Z" fill="#FF5D28"/>
<path d="M683.993 331.459H650.593C645.976 331.459 642.244 335.2 642.244 339.808V389.907C642.244 394.516 645.976 398.257 650.593 398.257H683.993C688.61 398.257 692.342 394.516 692.342 389.907V339.808C692.342 335.2 688.61 331.459 683.993 331.459ZM675.643 381.558H658.944V348.158H675.643V381.558Z" fill="#FF5D28"/>
<path d="M688.694 297.317C686.272 287.58 680.193 279.365 671.585 274.196C668.964 272.618 665.64 272.61 662.993 274.196C657.732 277.353 653.29 281.803 650.134 287.055C644.966 295.655 643.454 305.75 645.885 315.494C648.306 325.231 654.385 333.446 662.994 338.615C664.322 339.416 665.799 339.808 667.295 339.808C668.781 339.808 670.275 339.407 671.586 338.615C676.847 335.458 681.289 331.008 684.445 325.756C689.612 317.156 691.123 307.061 688.694 297.317ZM670.132 317.164C669.322 318.508 668.371 319.752 667.285 320.879C664.78 318.282 662.984 315.059 662.091 311.461C660.738 306.05 661.573 300.439 664.454 295.655C665.264 294.311 666.215 293.067 667.301 291.94C669.806 294.537 671.602 297.76 672.495 301.358C673.848 306.768 673.013 312.38 670.132 317.164Z" fill="#FF5D28"/>
</svg>
