<svg width="1200" height="1136" viewBox="0 0 1200 1136" fill="none" xmlns="http://www.w3.org/2000/svg">
<path fill-rule="evenodd" clip-rule="evenodd" d="M812.781 6.80427C809.213 10.5458 804.267 15.047 801.792 16.8062C799.318 18.5655 796.031 21.6703 794.491 23.7065C791.145 28.1287 784.843 32.5379 779.887 33.9264C777.201 34.6781 774.958 36.6353 771.01 41.6693C763.192 51.6443 759.672 64.72 762.268 74.1462C762.857 76.2844 762.682 76.8951 761.482 76.8951C760.633 76.8951 758.633 78.4775 757.038 80.4107L754.139 83.9273L750.716 81.4113C748.833 80.0289 745.981 78.1086 744.378 77.146C742.773 76.1834 739.789 73.9293 737.745 72.137C735.7 70.3437 730.074 67.0521 725.243 64.821C720.348 62.5609 713.323 58.2026 709.375 54.9799C688.8 38.1767 653.933 20.2549 632.292 15.3598C628.992 14.6131 623.818 13.1247 620.792 12.0532C609.026 7.88283 579.169 4.88104 546.781 4.61115C523.086 4.41423 482.855 6.90723 468.292 9.47419C463.892 10.2499 458.428 10.8926 456.151 10.9036C452.799 10.9176 451.085 11.6893 447.151 14.953C444.478 17.1701 441.167 19.2343 439.792 19.5392C429.05 21.9282 421.107 26.2295 406.792 37.411C401.567 41.4923 393.917 46.7082 389.792 49.0023C385.667 51.2954 378.692 55.2258 374.292 57.7368C369.892 60.2478 362.467 64.3632 357.792 66.8831C353.117 69.4031 347.312 72.9117 344.892 74.68C342.472 76.4483 339.899 77.8947 339.175 77.8947C338.451 77.8947 335.623 79.8789 332.892 82.3049C330.16 84.73 326.936 87.028 325.727 87.4109C322.916 88.3035 309.647 97.2849 307.283 99.8959C305.406 101.969 302.792 102.576 302.792 100.937C302.792 100.416 303.993 96.2553 305.461 91.6912C309.033 80.5906 309.295 64.1882 306.081 53.1117C304.917 49.1023 303.555 45.2788 303.054 44.6151C302.552 43.9513 301.594 41.4923 300.924 39.1503C299.426 33.9144 293.716 27.8608 290.957 28.5815C288.385 29.2542 284.065 26.8902 279.846 22.502C277.95 20.5308 275.744 18.9184 274.942 18.9184C274.14 18.9184 270.615 17.315 267.109 15.3548C261.864 12.423 258.212 11.3484 246.513 9.29727C237.774 7.76488 229.836 6.94521 225.922 7.16912C220.255 7.49299 219.32 7.85185 217.45 10.4168C216.294 12.0022 214.01 14.4522 212.373 15.8596C210.737 17.2671 206.61 20.8926 203.202 23.9164C199.794 26.9402 195.17 30.6387 192.926 32.1341C186.791 36.2245 183.198 41.7982 182.418 48.4325C182.054 51.5233 180.918 55.7056 179.893 57.7268C178.868 59.748 177.719 64.1022 177.341 67.4039C176.772 72.3609 177.028 74.2752 178.808 78.3995C180.309 81.8751 180.807 84.588 180.448 87.3269C179.87 91.7352 181.269 95.1428 185.141 98.7573C186.537 100.062 189.277 105.235 191.229 110.253C195.971 122.441 197.928 125.395 202.969 127.965C205.309 129.158 209.076 132.04 211.34 134.368C218.632 141.868 230.619 144.758 242.797 141.953C258.75 138.279 257.309 143.286 238.357 157.38C224.794 167.466 222.817 169.564 218.804 178.12C216.619 182.779 214.733 185.348 212.742 186.377C211.152 187.199 207.26 189.686 204.093 191.904C197.249 196.695 194.238 196.772 191.306 192.228C189.755 189.826 187.743 188.606 182.555 186.926C178.85 185.726 174.487 183.624 172.859 182.256C169.868 179.74 153.346 174.856 147.828 174.856C146.236 174.856 143.196 173.357 140.451 171.22L135.782 167.584L128.196 168.27C122.356 168.8 119.457 168.575 115.606 167.297C111.354 165.885 109.708 165.812 104.625 166.812C99.6505 167.791 97.2515 167.711 90.3345 166.339C82.6905 164.823 81.7715 164.819 78.9165 166.295C77.2095 167.178 74.9455 169.598 73.8865 171.673C71.6125 176.128 65.2425 182.206 57.3685 187.432C53.7995 189.801 49.8425 193.749 46.6715 198.107C42.4755 203.875 40.6955 205.435 35.9655 207.495C32.8455 208.854 28.8365 210.601 27.0575 211.379C23.3035 213.02 15.6755 222.824 12.0255 230.699C9.88548 235.316 9.62948 236.933 10.1815 242.323C11.0565 250.86 9.42948 257.838 5.73848 261.373C3.47248 263.543 2.79248 265.086 2.79248 268.058C2.79248 270.183 2.06648 275.113 1.17848 279.013C-1.05152 288.815 -0.342518 292.901 5.26148 302.541C9.23748 309.382 9.92248 311.286 9.39248 314.021C7.30248 324.795 7.40948 326.613 10.2775 329.009C19.3255 336.571 21.0735 338.585 24.2965 345.158C26.3275 349.303 28.4525 355.835 29.3745 360.77C32.8605 379.428 42.6545 391.124 56.6665 393.364C60.5285 393.981 60.7345 394.2 61.3565 398.342C61.7135 400.725 62.5205 403.332 63.1495 404.136C64.6945 406.111 83.7135 415.759 86.0635 415.759C87.0935 415.759 89.9445 416.936 92.3985 418.373C96.5775 420.821 97.4765 420.958 106.576 420.529C112.981 420.226 117.314 419.508 119.292 418.421C122.3 416.767 129.208 416.214 132.257 417.383C133.152 417.726 135.034 420.275 136.44 423.047C140.585 431.225 139.507 434.647 125.99 456.21C117.484 469.777 112.477 480.063 107.938 493.293C104.095 504.494 97.7925 528.85 97.7915 532.505C97.7915 533.994 96.4005 538.135 94.7005 541.708C90.3875 550.776 88.0725 566.67 86.5465 597.686C84.9125 630.896 84.8845 670.134 86.4915 674.155C87.1515 675.805 88.6545 681.301 89.8315 686.37C91.8725 695.157 91.8965 695.818 90.3315 700.528C88.6665 705.537 87.4135 706.642 83.3975 706.642C82.1705 706.642 79.8445 708.038 78.2295 709.742C76.6145 711.447 71.2425 716.236 66.2925 720.385C61.3425 724.533 56.7815 728.873 56.1575 730.03C55.5335 731.186 54.7155 734.606 54.3395 737.63C53.9635 740.654 52.9715 745.277 52.1345 747.903C50.7225 752.336 50.7635 753.359 52.7035 762.176C53.8525 767.4 56.0805 774.247 57.6555 777.393C59.2295 780.537 61.0915 784.911 61.7935 787.11C63.5165 792.507 65.8995 795.873 73.6935 803.918C79.0905 809.49 82.4245 811.822 92.0035 816.723C103.239 822.472 108.792 826.951 108.792 830.265C108.792 831.1 107.954 832.977 106.93 834.437C105.807 836.037 104.841 839.668 104.496 843.587C104.181 847.161 102.816 852.784 101.464 856.082C100.112 859.381 98.7055 864.626 98.3385 867.739C97.7225 872.963 97.9535 873.936 101.351 880.42C104.663 886.741 104.92 887.764 103.912 890.654C102.216 895.516 102.431 896.15 107.37 900.881C111.146 904.498 112.459 906.788 114.87 913.959C116.477 918.74 117.792 923.468 117.792 924.466C117.792 926.987 122.994 933.274 128.056 936.872C130.386 938.527 134.317 941.769 136.792 944.075C142.427 949.326 153.897 955.594 164.164 959.034C172.892 961.958 179.999 962.047 200.292 959.484C215.339 957.583 224.605 957.699 228.908 959.841C231.847 961.304 233.194 963.08 236.107 969.337C238.077 973.57 240.672 979.733 241.873 983.031C244.797 991.062 248.865 995.837 260.277 1004.64C272.778 1014.28 277.865 1017.12 285.989 1018.98C293.581 1020.72 308.973 1021 316.7 1019.53C325.452 1017.88 358.516 1018.1 364.839 1019.86C373.93 1022.4 381.731 1022.83 386.668 1021.07C393.613 1018.6 395.733 1019.02 400.311 1023.76C404.784 1028.4 416.693 1038.4 422.167 1042.12C431.049 1048.15 455.038 1054.39 475.126 1055.9C479.435 1056.23 489.784 1057.67 498.126 1059.1C511.132 1061.34 515.358 1061.65 527.792 1061.27C540.078 1060.9 542.929 1061.1 546.456 1062.59C548.745 1063.56 555.711 1065.77 561.935 1067.49C568.159 1069.22 573.846 1071.13 574.573 1071.73C575.526 1072.52 575.713 1074.28 575.246 1078.02C574.61 1083.11 574.684 1083.3 579.118 1088.29C582.708 1092.33 584.19 1095.19 586.313 1102.15C589.237 1111.73 590.395 1113.19 603.087 1123.27C617.755 1134.92 630.786 1137.81 649.531 1133.56C654.613 1132.41 662.21 1131.47 666.413 1131.47C675.216 1131.47 686.034 1128.22 701.695 1120.87C713.159 1115.49 719.408 1110.85 725.175 1103.43C730.936 1096.01 732.839 1095.57 738.139 1100.43C740.423 1102.53 744.699 1105.08 747.641 1106.11C751.82 1107.57 753.401 1108.75 754.87 1111.48C755.903 1113.4 757.375 1115.77 758.144 1116.75C759.627 1118.62 769.101 1122.78 774.566 1123.94C776.367 1124.33 779.26 1125.84 780.995 1127.3C786.045 1131.55 794.227 1131.46 817.297 1126.94C833.103 1123.84 838.307 1123.23 848.292 1123.29C861.717 1123.37 865.266 1122.29 877.31 1114.46C880.62 1112.31 888.111 1108.77 893.957 1106.61C899.803 1104.44 905.741 1101.91 907.154 1100.98C909.534 1099.42 910.188 1099.42 916.071 1100.89C919.563 1101.77 924.062 1102.48 926.068 1102.48C931.633 1102.48 940.807 1106.32 945.521 1110.62C947.846 1112.74 950.688 1114.48 951.836 1114.48C952.984 1114.48 957.761 1116.5 962.453 1118.98C970.414 1123.17 971.496 1123.47 978.644 1123.47C982.857 1123.47 992.151 1122.76 999.298 1121.89C1006.45 1121.02 1015.67 1120.2 1019.79 1120.07C1041.91 1119.39 1068.91 1103.4 1076.53 1086.47C1078.14 1082.88 1079.8 1078.6 1080.21 1076.97C1080.62 1075.33 1083.45 1068.84 1086.5 1062.54C1091.71 1051.77 1092.19 1050.14 1094.42 1035.55C1096.52 1021.73 1097.27 1019.03 1101.18 1011.02C1105.68 1001.82 1106.08 1000.43 1109.88 980.538C1111.98 969.586 1112.02 968.303 1110.8 953.049C1109.69 939.097 1109.17 936.346 1106.78 931.552C1105.27 928.528 1103.06 922.502 1101.88 918.158C1100.69 913.816 1098.89 909.093 1097.89 907.662C1096.88 906.233 1095.76 904.11 1095.4 902.945C1095.04 901.781 1093.85 900.025 1092.77 899.042C1091.68 898.059 1090.79 896.158 1090.79 894.817C1090.79 893.475 1094.13 885.335 1098.2 876.729C1105.99 860.269 1106.53 858.528 1109.83 838.649C1111.55 828.317 1112.49 825.273 1115.34 820.656C1117.22 817.6 1120.95 808.801 1123.62 801.104C1126.29 793.407 1129.22 785.67 1130.13 783.911C1131.05 782.151 1131.79 780.119 1131.79 779.395C1131.79 778.67 1132.91 776.439 1134.27 774.437C1135.63 772.435 1137.15 768.984 1137.65 766.768C1138.15 764.553 1139.51 761.519 1140.69 760.027C1141.86 758.535 1143.98 753.448 1145.4 748.721C1146.82 743.995 1149.29 737.774 1150.89 734.896C1152.49 732.018 1153.79 728.793 1153.79 727.73C1153.79 726.666 1154.44 724.523 1155.23 722.967C1159.32 714.882 1164.8 694.239 1167.24 677.654C1170.63 654.636 1171.42 650.639 1174.44 641.279C1176.3 635.512 1176.81 632.278 1176.36 629.244C1175.97 626.679 1176.27 623.575 1177.14 621.113C1178.07 618.474 1178.31 615.583 1177.85 612.539C1177.46 610.014 1177.48 607.065 1177.88 605.987C1178.28 604.907 1178.9 599.112 1179.27 593.109C1179.88 583.091 1179.73 581.616 1177.47 575.195C1176.11 571.347 1174.47 565.499 1173.82 562.2C1173.18 558.902 1170.9 550.355 1168.75 543.208C1166.61 536.061 1164.16 527.208 1163.32 523.536C1162.47 519.862 1160.21 513.578 1158.29 509.569C1156.36 505.561 1154.79 501.659 1154.79 500.899C1154.79 500.139 1151.62 490.103 1147.75 478.597C1142.3 462.418 1140.28 454.796 1138.84 444.964C1133.35 407.491 1123.71 370.6 1112.79 345.287C1110.18 339.24 1107.48 332.492 1106.8 330.293C1104.85 323.98 1095.48 305.67 1090.08 297.637C1087.37 293.607 1083.48 287.104 1081.42 283.184C1079.36 279.266 1075.11 273.055 1071.98 269.383C1068.85 265.71 1064.82 260.819 1063.02 258.514C1055.22 248.536 1053.22 246.443 1045.47 240.195C1040.97 236.567 1035.23 231.064 1032.71 227.967C1024.89 218.364 1014.87 208.657 999.792 196.092C991.818 189.446 983.267 181.825 980.792 179.155C977.17 175.249 974.75 173.74 968.387 171.422C963.458 169.627 958.424 166.867 955.017 164.093C952.011 161.645 947.469 158.741 944.922 157.639C939.336 155.219 933.792 150.192 933.792 147.544C933.792 146.482 935.558 142.41 937.717 138.493C939.876 134.577 942.305 129.574 943.115 127.375C943.925 125.176 945.531 121.017 946.685 118.135C947.914 115.056 949.419 107.379 950.328 99.537L951.878 86.1824L948.269 77.9797C946.285 73.4685 944.221 66.9931 943.68 63.5895C943.14 60.1868 941.381 54.858 939.771 51.7472C938.162 48.6365 936.548 44.2352 936.185 41.9661C934.917 34.0363 929.247 29.914 919.609 29.914C914.502 29.914 914.214 29.757 908.827 24.0343C905.138 20.1159 901.958 17.7419 899.292 16.9142C897.092 16.2315 894.392 14.882 893.292 13.9144C890.034 11.0486 885.749 9.28727 877.792 7.54197C873.667 6.63733 869.054 5.25489 867.54 4.4692C864.712 3.00179 849.714 1.40743 830.281 0.509795L819.271 0L812.781 6.80427ZM1111.64 175.534C1110.73 175.77 1108.73 177.778 1107.19 179.995C1105.66 182.212 1102.53 185.31 1100.25 186.879C1097.97 188.448 1094.79 191.228 1093.18 193.057C1091.58 194.886 1088.18 197.602 1085.64 199.092C1078.93 203.02 1074.79 209.686 1074.79 216.56C1074.79 219.517 1074.12 223.244 1073.29 224.844C1072.46 226.443 1071.32 231.097 1070.75 235.186C1069.79 242.063 1069.88 242.941 1071.96 246.928C1073.51 249.891 1074.15 252.699 1074.01 255.911C1073.87 259.145 1074.29 260.988 1075.38 261.895C1078.63 264.587 1082.82 271.829 1084.2 277.119C1084.98 280.125 1086.33 283.946 1087.19 285.608C1089.03 289.163 1095.34 294.631 1098.54 295.449C1099.78 295.765 1100.79 296.67 1100.79 297.461C1100.79 300.195 1105.4 303.479 1113.66 306.633C1123.37 310.337 1125.19 310.424 1137.69 307.786C1142.87 306.696 1150.19 305.803 1153.98 305.803C1161.94 305.803 1166.39 303.919 1176.77 296.143L1183.25 291.291L1185.28 282.721C1186.58 277.19 1188.29 272.856 1190.09 270.496C1191.62 268.486 1194.43 262.144 1196.33 256.403C1201.41 241.09 1201.21 234.738 1195.1 216.017C1189.36 198.43 1187.05 195.296 1180.54 196.233C1175.58 196.946 1175.16 196.706 1171.52 191.099C1170 188.762 1168.17 186.851 1167.44 186.851C1166.71 186.851 1161.71 185.014 1156.33 182.769C1150.37 180.28 1144.36 178.501 1140.93 178.213C1137.83 177.954 1133.49 177.343 1131.29 176.856C1126.44 175.781 1113.93 174.941 1111.64 175.534ZM363.475 660.849C363.156 661.645 362.919 661.408 362.871 660.244C362.828 659.19 363.064 658.601 363.396 658.932C363.728 659.264 363.764 660.127 363.475 660.849Z" fill="#F7F6F0"/>
<circle cx="599.663" cy="567.796" r="415.37" stroke="white" stroke-width="25"/>
<path d="M800.608 621.073H400.066C395.46 621.073 391.721 624.803 391.721 629.417V662.796C391.721 745.617 459.104 813 541.925 813H658.75C741.571 813 808.954 745.617 808.954 662.796V629.417C808.953 624.803 805.222 621.073 800.608 621.073ZM792.264 662.796C792.264 736.412 732.366 796.311 658.75 796.311H541.925C468.309 796.311 408.411 736.412 408.411 662.796V637.762H792.264V662.796Z" fill="#FF5D28"/>
<path d="M568.703 499.533L552.013 482.844C535.073 465.913 509.856 460.48 487.643 468.541L394.458 375.356C384.303 365.201 367.78 365.201 357.616 375.356C347.461 385.511 347.461 402.034 357.616 412.189L450.793 505.365C442.74 527.57 448.156 552.788 465.095 569.736L481.785 586.426C493.768 598.401 509.497 604.392 525.235 604.392C540.974 604.392 556.711 598.409 568.703 586.435C580.31 574.827 586.702 559.397 586.702 542.984C586.701 526.569 580.31 511.14 568.703 499.533ZM556.886 574.618C539.43 592.075 511.041 592.075 493.584 574.618L476.894 557.929C463.518 544.552 460.013 524.083 468.174 507.01C469.701 503.822 469.05 500.018 466.547 497.514L369.416 400.382C365.769 396.735 365.769 390.803 369.416 387.156C371.244 385.328 373.638 384.419 376.034 384.419C378.429 384.419 380.823 385.329 382.651 387.156L479.775 484.279C482.278 486.775 486.076 487.416 489.279 485.907C506.352 477.754 526.814 481.25 540.198 494.627L556.887 511.316C565.341 519.77 569.996 531.01 569.996 542.967C569.996 554.925 565.34 566.157 556.886 574.618Z" fill="#FF5D28"/>
<path d="M514.445 545.416L502.644 557.217L544.36 598.933L556.161 587.132L514.445 545.416Z" fill="#FF5D28"/>
<path d="M539.479 520.376L527.678 532.177L569.394 573.894L581.196 562.093L539.479 520.376Z" fill="#FF5D28"/>
<path d="M850.676 338.357C850.676 324.004 839.018 312.321 824.665 312.313C824.657 312.313 824.649 312.313 824.64 312.313C817.781 312.313 811.072 315.092 806.224 319.948L715.025 411.138C691.677 403.678 666.15 409.794 648.676 427.427L631.987 444.117C608.029 468.074 608.029 507.06 631.987 531.018C643.594 542.625 659.024 549.017 675.437 549.017C691.851 549.017 707.281 542.626 718.888 531.027L735.552 514.363C753.209 496.855 759.334 471.329 751.858 447.981L843.064 356.782C847.914 351.925 850.685 345.207 850.676 338.357ZM833.987 338.381C833.995 340.834 832.993 343.246 831.258 344.982L736.296 439.944C733.9 442.34 733.192 445.936 734.493 449.057C742.17 467.473 737.973 488.452 723.778 502.529L707.089 519.219C689.632 536.668 661.244 536.668 643.786 519.219C626.329 501.77 626.33 473.365 643.786 455.916L660.5 439.202C669.888 429.739 682.363 424.724 695.097 424.724C701.431 424.724 707.84 425.968 713.948 428.513C717.052 429.798 720.657 429.105 723.061 426.711L818.031 331.749C819.767 330.005 822.178 329.003 824.64 329.003H824.649C829.798 329.003 833.995 333.201 833.987 338.358C833.987 338.364 833.987 338.373 833.987 338.381Z" fill="#FF5D28"/>
<path d="M669.539 448.289L652.825 465.003C640.483 477.444 640.483 497.689 652.825 510.131L664.675 498.382C658.766 492.416 658.766 482.711 664.649 476.777L681.313 460.113C687.288 454.188 696.984 454.205 702.942 460.113L714.691 448.263C702.258 435.93 682.006 435.922 669.539 448.289Z" fill="#FF5D28"/>
<path d="M566.958 362.389C566.958 351.407 559.848 342.052 550.227 338.698C550.394 336.17 550.168 333.616 549.55 331.088C547.965 324.596 543.943 319.113 538.227 315.642C532.503 312.171 525.785 311.136 519.285 312.73C512.785 314.324 507.302 318.346 503.831 324.063C501.094 328.585 499.9 333.717 500.251 338.774C490.513 342.213 483.512 351.5 483.512 362.398C483.512 368.807 485.932 374.657 489.904 379.088C485.932 383.519 483.512 389.368 483.512 395.777C483.512 408.311 492.774 418.725 504.807 420.535L519.335 435.056C520.962 436.683 523.098 437.501 525.234 437.501C527.371 437.501 529.507 436.683 531.134 435.048L545.662 420.528C557.694 418.716 566.957 408.303 566.957 395.769C566.957 389.361 564.537 383.511 560.565 379.08C564.538 374.647 566.958 368.797 566.958 362.389ZM541.925 387.431C546.523 387.431 550.27 391.177 550.27 395.775C550.27 400.373 546.523 404.12 541.925 404.12C539.713 404.12 537.594 404.996 536.025 406.565L525.235 417.355L514.445 406.565C512.885 404.997 510.757 404.12 508.546 404.12C503.948 404.12 500.201 400.373 500.201 395.775C500.201 391.177 503.948 387.431 508.546 387.431C513.161 387.431 516.882 383.701 516.882 379.095C516.882 374.489 513.144 370.75 508.537 370.75C503.939 370.75 500.193 367.003 500.193 362.405C500.193 357.807 503.939 354.061 509.004 354.053C509.505 354.02 509.997 354.02 510.497 354.053C513.61 354.22 516.522 352.667 518.116 350.014C519.71 347.36 519.701 344.039 518.099 341.394C516.481 338.724 516.481 335.402 518.099 332.732C519.251 330.821 521.078 329.478 523.248 328.952C525.401 328.41 527.645 328.768 529.557 329.929C531.468 331.08 532.802 332.916 533.337 335.078C533.871 337.239 533.528 339.475 532.369 341.386C530.767 344.031 530.758 347.352 532.352 350.006C533.937 352.651 536.842 354.186 539.971 354.045C540.463 354.012 540.964 354.02 541.924 354.054C546.522 354.054 550.269 357.8 550.269 362.398C550.269 366.996 546.522 370.743 541.924 370.743C537.318 370.743 533.579 374.481 533.579 379.088C533.58 383.693 537.318 387.431 541.925 387.431Z" fill="#FF5D28"/>
<path d="M533.588 429.163H516.899V454.197H533.588V429.163Z" fill="#FF5D28"/>
<path d="M600.337 395.775C586.535 395.775 575.303 407.008 575.303 420.809C575.303 434.611 586.535 445.844 600.337 445.844C614.139 445.844 625.371 434.611 625.371 420.809C625.371 407.008 614.139 395.775 600.337 395.775ZM600.337 429.154C595.739 429.154 591.992 425.407 591.992 420.809C591.992 416.211 595.739 412.465 600.337 412.465C604.943 412.465 608.682 416.211 608.682 420.809C608.682 425.407 604.935 429.154 600.337 429.154Z" fill="#FF5D28"/>
<path d="M791.187 580.425C788.066 570.153 778.503 562.66 767.229 562.66C755.955 562.66 746.393 570.162 743.271 580.425C732.999 583.546 725.505 593.101 725.505 604.383H742.195C742.195 599.777 745.934 596.039 750.54 596.039C755.154 596.039 758.884 592.308 758.884 587.694C758.884 583.088 762.623 579.349 767.229 579.349C771.835 579.349 775.574 583.087 775.574 587.694C775.574 592.308 779.304 596.039 783.918 596.039C788.524 596.039 792.263 599.777 792.263 604.383H808.953C808.953 593.11 801.459 583.547 791.187 580.425Z" fill="#FF5D28"/>
<path d="M466.822 345.708V329.019C448.414 329.019 433.444 343.989 433.444 362.398C433.444 380.806 448.414 395.776 466.822 395.776V379.086C457.619 379.086 450.133 371.6 450.133 362.397C450.133 353.193 457.619 345.708 466.822 345.708Z" fill="#FF5D28"/>
<path d="M775.575 487.567C761.773 487.567 750.541 498.799 750.541 512.601C750.541 526.403 761.773 537.635 775.575 537.635C789.377 537.635 800.609 526.403 800.609 512.601C800.608 498.798 789.377 487.567 775.575 487.567ZM775.575 520.945C770.969 520.945 767.23 517.198 767.23 512.6C767.23 508.002 770.969 504.256 775.575 504.256C780.181 504.256 783.919 508.002 783.919 512.6C783.919 517.198 780.181 520.945 775.575 520.945Z" fill="#FF5D28"/>
<path d="M675.438 604.383H692.128C692.128 595.187 699.613 587.694 708.817 587.694V571.004C690.409 571.004 675.438 585.975 675.438 604.383Z" fill="#FF5D28"/>
<path d="M683.783 329.019C665.374 329.019 650.404 343.989 650.404 362.398C650.404 380.806 665.374 395.776 683.783 395.776C702.192 395.776 717.162 380.806 717.162 362.398C717.162 343.989 702.192 329.019 683.783 329.019ZM683.783 379.086C674.579 379.086 667.094 371.6 667.094 362.397C667.094 353.193 674.579 345.707 683.783 345.707C692.979 345.707 700.472 353.193 700.472 362.397C700.472 371.6 692.988 379.086 683.783 379.086Z" fill="#FF5D28"/>
<path d="M429.272 554.315C426.969 554.315 425.1 552.437 425.1 550.143C425.1 538.644 415.738 529.281 404.238 529.281H383.376C378.771 529.281 375.032 533.019 375.032 537.626V558.487C375.032 569.995 384.394 579.349 395.893 579.349C398.197 579.349 400.066 581.227 400.066 583.521C400.066 595.029 409.428 604.383 420.928 604.383H441.789C446.404 604.383 450.134 600.653 450.134 596.039V575.177C450.133 563.67 440.771 554.315 429.272 554.315ZM433.444 587.703H420.928C418.624 587.703 416.755 585.825 416.755 583.53C416.755 572.023 407.393 562.669 395.893 562.669C393.59 562.669 391.721 560.791 391.721 558.496V545.979H404.238C406.542 545.979 408.411 547.848 408.411 550.151C408.411 561.659 417.773 571.013 429.272 571.013C431.576 571.013 433.445 572.891 433.445 575.186L433.444 587.703Z" fill="#FF5D28"/>
<path d="M416.763 487.575H400.074V504.264H416.763V487.575Z" fill="#FF5D28"/>
<path d="M625.38 345.716H608.69V362.405H625.38V345.716Z" fill="#FF5D28"/>
<path d="M800.617 445.851H783.927V462.541H800.617V445.851Z" fill="#FF5D28"/>
<path d="M592.001 462.541H575.312V479.23H592.001V462.541Z" fill="#FF5D28"/>
<path d="M633.716 554.315C619.914 554.315 608.682 565.547 608.682 579.349C608.682 593.151 619.914 604.383 633.716 604.383C647.518 604.383 658.75 593.16 658.75 579.349C658.75 565.547 647.518 554.315 633.716 554.315ZM633.716 587.694C629.11 587.694 625.371 583.956 625.371 579.349C625.371 574.743 629.11 571.004 633.716 571.004C638.322 571.004 642.06 574.751 642.06 579.349C642.06 583.956 638.322 587.694 633.716 587.694Z" fill="#FF5D28"/>
<path d="M733.851 629.417V704.519C733.851 709.125 730.112 712.863 725.506 712.863C720.901 712.863 717.162 709.126 717.162 704.519V679.485C717.162 665.683 705.929 654.451 692.128 654.451C678.326 654.451 667.094 665.683 667.094 679.485C667.094 684.09 663.356 687.829 658.749 687.829C654.142 687.829 650.404 684.091 650.404 679.485V629.417H633.715V679.486C633.715 693.287 644.947 704.52 658.749 704.52C672.551 704.52 683.783 693.287 683.783 679.486C683.783 674.88 687.521 671.141 692.128 671.141C696.734 671.141 700.472 674.88 700.472 679.486V704.52C700.472 718.322 711.705 729.554 725.506 729.554C739.308 729.554 750.541 718.33 750.541 704.52V629.417H733.851Z" fill="#FF5D28"/>
</svg>
