<svg width="1200" height="1136" viewBox="0 0 1200 1136" fill="none" xmlns="http://www.w3.org/2000/svg">
<path fill-rule="evenodd" clip-rule="evenodd" d="M812.781 6.80427C809.213 10.5458 804.267 15.047 801.792 16.8062C799.318 18.5655 796.031 21.6703 794.491 23.7065C791.145 28.1287 784.843 32.5379 779.887 33.9264C777.201 34.6781 774.958 36.6353 771.01 41.6693C763.192 51.6443 759.672 64.72 762.268 74.1462C762.857 76.2844 762.682 76.8951 761.482 76.8951C760.633 76.8951 758.633 78.4775 757.038 80.4107L754.139 83.9273L750.716 81.4113C748.833 80.0289 745.981 78.1086 744.378 77.146C742.773 76.1834 739.789 73.9293 737.745 72.137C735.7 70.3438 730.074 67.0521 725.243 64.821C720.348 62.5609 713.323 58.2026 709.375 54.9799C688.8 38.1767 653.933 20.2549 632.292 15.3598C628.992 14.6131 623.818 13.1247 620.792 12.0532C609.026 7.88283 579.169 4.88104 546.781 4.61115C523.086 4.41423 482.855 6.90723 468.292 9.47419C463.892 10.2499 458.428 10.8926 456.151 10.9036C452.799 10.9176 451.085 11.6893 447.151 14.953C444.478 17.1701 441.167 19.2343 439.792 19.5392C429.05 21.9282 421.107 26.2295 406.792 37.411C401.567 41.4923 393.917 46.7082 389.792 49.0023C385.667 51.2954 378.692 55.2258 374.292 57.7368C369.892 60.2478 362.467 64.3632 357.792 66.8831C353.117 69.4031 347.312 72.9117 344.892 74.68C342.472 76.4483 339.899 77.8947 339.175 77.8947C338.451 77.8947 335.623 79.8789 332.892 82.3049C330.16 84.73 326.936 87.028 325.727 87.4109C322.916 88.3035 309.647 97.2849 307.283 99.8959C305.406 101.969 302.792 102.576 302.792 100.937C302.792 100.416 303.993 96.2553 305.461 91.6912C309.033 80.5906 309.295 64.1882 306.081 53.1117C304.917 49.1023 303.555 45.2788 303.054 44.6151C302.552 43.9513 301.594 41.4923 300.924 39.1503C299.426 33.9144 293.716 27.8608 290.957 28.5815C288.385 29.2542 284.065 26.8902 279.846 22.502C277.95 20.5308 275.744 18.9184 274.942 18.9184C274.14 18.9184 270.615 17.315 267.109 15.3548C261.864 12.423 258.212 11.3484 246.513 9.29727C237.774 7.76488 229.836 6.94521 225.922 7.16912C220.255 7.49299 219.32 7.85185 217.45 10.4168C216.294 12.0022 214.01 14.4522 212.373 15.8596C210.737 17.2671 206.61 20.8926 203.202 23.9164C199.794 26.9402 195.17 30.6387 192.926 32.1341C186.791 36.2244 183.198 41.7982 182.418 48.4325C182.054 51.5233 180.918 55.7056 179.893 57.7268C178.868 59.748 177.719 64.1022 177.341 67.4039C176.772 72.3609 177.028 74.2752 178.808 78.3995C180.309 81.8751 180.807 84.588 180.448 87.3269C179.87 91.7352 181.269 95.1428 185.141 98.7573C186.537 100.062 189.277 105.235 191.229 110.253C195.971 122.441 197.928 125.395 202.969 127.965C205.309 129.158 209.076 132.04 211.34 134.368C218.632 141.868 230.619 144.758 242.797 141.953C258.75 138.279 257.309 143.286 238.357 157.38C224.794 167.466 222.817 169.564 218.804 178.12C216.619 182.779 214.733 185.348 212.742 186.377C211.152 187.199 207.26 189.686 204.093 191.904C197.249 196.695 194.238 196.772 191.306 192.228C189.755 189.826 187.743 188.606 182.555 186.926C178.85 185.726 174.487 183.624 172.859 182.256C169.868 179.74 153.346 174.856 147.828 174.856C146.236 174.856 143.196 173.357 140.451 171.22L135.782 167.584L128.196 168.27C122.356 168.8 119.457 168.575 115.606 167.297C111.354 165.885 109.708 165.812 104.625 166.812C99.6505 167.791 97.2515 167.711 90.3345 166.339C82.6905 164.823 81.7715 164.819 78.9165 166.295C77.2095 167.178 74.9455 169.598 73.8865 171.673C71.6125 176.128 65.2425 182.206 57.3685 187.432C53.7995 189.801 49.8425 193.749 46.6715 198.107C42.4755 203.875 40.6955 205.435 35.9655 207.495C32.8455 208.854 28.8365 210.601 27.0575 211.379C23.3035 213.02 15.6755 222.824 12.0255 230.699C9.88548 235.316 9.62948 236.933 10.1815 242.323C11.0565 250.86 9.42948 257.838 5.73848 261.373C3.47248 263.543 2.79248 265.086 2.79248 268.058C2.79248 270.183 2.06648 275.113 1.17848 279.013C-1.05152 288.815 -0.342518 292.901 5.26148 302.541C9.23748 309.382 9.92248 311.286 9.39248 314.021C7.30248 324.795 7.40948 326.613 10.2775 329.009C19.3255 336.571 21.0735 338.585 24.2965 345.158C26.3275 349.303 28.4525 355.835 29.3745 360.77C32.8605 379.428 42.6545 391.124 56.6665 393.364C60.5285 393.981 60.7345 394.2 61.3565 398.342C61.7135 400.725 62.5205 403.332 63.1495 404.136C64.6945 406.111 83.7135 415.759 86.0635 415.759C87.0935 415.759 89.9445 416.936 92.3985 418.373C96.5775 420.821 97.4765 420.958 106.576 420.529C112.981 420.226 117.314 419.508 119.292 418.421C122.3 416.767 129.208 416.214 132.257 417.383C133.152 417.726 135.034 420.275 136.44 423.047C140.585 431.225 139.507 434.647 125.99 456.21C117.484 469.777 112.477 480.063 107.938 493.293C104.095 504.494 97.7925 528.85 97.7915 532.505C97.7915 533.994 96.4005 538.135 94.7005 541.708C90.3875 550.776 88.0725 566.67 86.5465 597.686C84.9125 630.896 84.8845 670.134 86.4915 674.155C87.1515 675.805 88.6545 681.301 89.8315 686.37C91.8725 695.157 91.8965 695.818 90.3315 700.528C88.6665 705.537 87.4135 706.642 83.3975 706.642C82.1705 706.642 79.8445 708.038 78.2295 709.742C76.6145 711.447 71.2425 716.236 66.2925 720.385C61.3425 724.533 56.7815 728.873 56.1575 730.03C55.5335 731.186 54.7155 734.606 54.3395 737.63C53.9635 740.654 52.9715 745.277 52.1345 747.903C50.7225 752.336 50.7635 753.359 52.7035 762.176C53.8525 767.4 56.0805 774.247 57.6555 777.393C59.2295 780.538 61.0915 784.911 61.7935 787.11C63.5165 792.507 65.8995 795.873 73.6935 803.918C79.0905 809.49 82.4245 811.822 92.0035 816.723C103.239 822.472 108.792 826.951 108.792 830.265C108.792 831.1 107.954 832.977 106.93 834.437C105.807 836.037 104.841 839.668 104.496 843.587C104.181 847.161 102.816 852.784 101.464 856.082C100.112 859.381 98.7055 864.626 98.3385 867.739C97.7225 872.963 97.9535 873.936 101.351 880.42C104.663 886.741 104.92 887.764 103.912 890.654C102.216 895.516 102.431 896.15 107.37 900.881C111.146 904.498 112.459 906.788 114.87 913.959C116.477 918.74 117.792 923.468 117.792 924.466C117.792 926.987 122.994 933.274 128.056 936.872C130.386 938.527 134.317 941.769 136.792 944.075C142.427 949.326 153.897 955.594 164.164 959.034C172.892 961.958 179.999 962.047 200.292 959.484C215.339 957.583 224.605 957.699 228.908 959.841C231.847 961.304 233.194 963.08 236.107 969.337C238.077 973.57 240.672 979.732 241.873 983.031C244.797 991.062 248.865 995.837 260.277 1004.64C272.778 1014.28 277.865 1017.12 285.989 1018.98C293.581 1020.72 308.973 1021 316.7 1019.53C325.452 1017.88 358.516 1018.1 364.839 1019.86C373.93 1022.4 381.731 1022.83 386.668 1021.07C393.613 1018.6 395.733 1019.02 400.311 1023.76C404.784 1028.4 416.693 1038.4 422.167 1042.12C431.049 1048.15 455.038 1054.39 475.126 1055.9C479.435 1056.23 489.784 1057.67 498.126 1059.1C511.132 1061.34 515.358 1061.65 527.792 1061.27C540.078 1060.9 542.929 1061.1 546.456 1062.59C548.745 1063.56 555.711 1065.77 561.935 1067.49C568.159 1069.22 573.846 1071.13 574.573 1071.73C575.526 1072.52 575.713 1074.28 575.246 1078.02C574.61 1083.11 574.684 1083.3 579.118 1088.29C582.708 1092.33 584.19 1095.19 586.313 1102.15C589.237 1111.73 590.395 1113.19 603.087 1123.27C617.755 1134.92 630.786 1137.81 649.531 1133.56C654.613 1132.41 662.21 1131.47 666.413 1131.47C675.216 1131.47 686.034 1128.22 701.695 1120.87C713.159 1115.49 719.408 1110.85 725.175 1103.43C730.936 1096.01 732.839 1095.57 738.139 1100.43C740.423 1102.53 744.699 1105.08 747.641 1106.11C751.82 1107.57 753.401 1108.75 754.87 1111.48C755.903 1113.4 757.375 1115.77 758.144 1116.75C759.627 1118.62 769.101 1122.78 774.566 1123.94C776.367 1124.33 779.26 1125.84 780.995 1127.3C786.045 1131.55 794.227 1131.46 817.297 1126.94C833.103 1123.84 838.307 1123.23 848.292 1123.29C861.717 1123.37 865.266 1122.29 877.31 1114.46C880.62 1112.31 888.111 1108.77 893.957 1106.61C899.803 1104.44 905.741 1101.91 907.154 1100.98C909.534 1099.42 910.188 1099.42 916.071 1100.89C919.563 1101.77 924.062 1102.48 926.068 1102.48C931.633 1102.48 940.807 1106.32 945.521 1110.62C947.846 1112.74 950.688 1114.48 951.836 1114.48C952.984 1114.48 957.761 1116.5 962.453 1118.98C970.414 1123.17 971.496 1123.47 978.644 1123.47C982.857 1123.47 992.151 1122.76 999.298 1121.89C1006.45 1121.02 1015.67 1120.2 1019.79 1120.07C1041.91 1119.39 1068.91 1103.4 1076.53 1086.47C1078.14 1082.88 1079.8 1078.6 1080.21 1076.97C1080.62 1075.33 1083.45 1068.84 1086.5 1062.54C1091.71 1051.77 1092.19 1050.14 1094.42 1035.55C1096.52 1021.73 1097.27 1019.03 1101.18 1011.02C1105.68 1001.82 1106.08 1000.43 1109.88 980.538C1111.98 969.586 1112.02 968.303 1110.8 953.049C1109.69 939.097 1109.17 936.346 1106.78 931.552C1105.27 928.528 1103.06 922.502 1101.88 918.158C1100.69 913.816 1098.89 909.093 1097.89 907.662C1096.88 906.233 1095.76 904.11 1095.4 902.945C1095.04 901.781 1093.85 900.025 1092.77 899.042C1091.68 898.059 1090.79 896.158 1090.79 894.817C1090.79 893.475 1094.13 885.335 1098.2 876.729C1105.99 860.27 1106.53 858.528 1109.83 838.649C1111.55 828.317 1112.49 825.274 1115.34 820.656C1117.22 817.6 1120.95 808.801 1123.62 801.104C1126.29 793.407 1129.22 785.67 1130.13 783.911C1131.05 782.151 1131.79 780.119 1131.79 779.395C1131.79 778.67 1132.91 776.439 1134.27 774.437C1135.63 772.435 1137.15 768.984 1137.65 766.768C1138.15 764.553 1139.51 761.519 1140.69 760.027C1141.86 758.535 1143.98 753.448 1145.4 748.721C1146.82 743.995 1149.29 737.774 1150.89 734.896C1152.49 732.018 1153.79 728.793 1153.79 727.73C1153.79 726.666 1154.44 724.523 1155.23 722.967C1159.32 714.882 1164.8 694.239 1167.24 677.654C1170.63 654.636 1171.42 650.639 1174.44 641.279C1176.3 635.512 1176.81 632.278 1176.36 629.244C1175.97 626.679 1176.27 623.575 1177.14 621.113C1178.07 618.474 1178.31 615.583 1177.85 612.539C1177.46 610.014 1177.48 607.065 1177.88 605.987C1178.28 604.907 1178.9 599.112 1179.27 593.109C1179.88 583.091 1179.73 581.616 1177.47 575.195C1176.11 571.347 1174.47 565.499 1173.82 562.2C1173.18 558.902 1170.9 550.355 1168.75 543.208C1166.61 536.061 1164.16 527.208 1163.32 523.536C1162.47 519.862 1160.21 513.578 1158.29 509.569C1156.36 505.561 1154.79 501.659 1154.79 500.899C1154.79 500.139 1151.62 490.103 1147.75 478.597C1142.3 462.418 1140.28 454.796 1138.84 444.964C1133.35 407.491 1123.71 370.6 1112.79 345.287C1110.18 339.24 1107.48 332.492 1106.8 330.293C1104.85 323.98 1095.48 305.67 1090.08 297.637C1087.37 293.607 1083.48 287.104 1081.42 283.184C1079.36 279.266 1075.11 273.055 1071.98 269.383C1068.85 265.71 1064.82 260.819 1063.02 258.514C1055.22 248.536 1053.22 246.443 1045.47 240.195C1040.97 236.567 1035.23 231.064 1032.71 227.967C1024.89 218.364 1014.87 208.657 999.792 196.092C991.818 189.446 983.267 181.825 980.792 179.155C977.17 175.249 974.75 173.74 968.387 171.422C963.458 169.627 958.424 166.867 955.017 164.093C952.011 161.645 947.469 158.741 944.922 157.639C939.336 155.219 933.792 150.192 933.792 147.544C933.792 146.482 935.558 142.41 937.717 138.493C939.876 134.577 942.305 129.574 943.115 127.375C943.925 125.176 945.531 121.017 946.685 118.135C947.914 115.056 949.419 107.379 950.328 99.537L951.878 86.1824L948.269 77.9797C946.285 73.4685 944.221 66.9931 943.68 63.5895C943.14 60.1868 941.381 54.858 939.771 51.7472C938.162 48.6365 936.548 44.2352 936.185 41.9661C934.917 34.0363 929.247 29.914 919.609 29.914C914.502 29.914 914.214 29.757 908.827 24.0343C905.138 20.1159 901.958 17.7419 899.292 16.9142C897.092 16.2315 894.392 14.882 893.292 13.9144C890.034 11.0486 885.749 9.28727 877.792 7.54197C873.667 6.63733 869.054 5.25489 867.54 4.4692C864.712 3.00179 849.714 1.40743 830.281 0.509795L819.271 0L812.781 6.80427ZM1111.64 175.534C1110.73 175.77 1108.73 177.778 1107.19 179.995C1105.66 182.212 1102.53 185.31 1100.25 186.879C1097.97 188.448 1094.79 191.228 1093.18 193.057C1091.58 194.886 1088.18 197.602 1085.64 199.092C1078.93 203.02 1074.79 209.686 1074.79 216.56C1074.79 219.517 1074.12 223.244 1073.29 224.844C1072.46 226.443 1071.32 231.097 1070.75 235.186C1069.79 242.063 1069.88 242.941 1071.96 246.928C1073.51 249.891 1074.15 252.699 1074.01 255.911C1073.87 259.145 1074.29 260.988 1075.38 261.895C1078.63 264.587 1082.82 271.829 1084.2 277.119C1084.98 280.125 1086.33 283.946 1087.19 285.608C1089.03 289.163 1095.34 294.631 1098.54 295.449C1099.78 295.765 1100.79 296.67 1100.79 297.461C1100.79 300.195 1105.4 303.479 1113.66 306.633C1123.37 310.337 1125.19 310.424 1137.69 307.786C1142.87 306.696 1150.19 305.803 1153.98 305.803C1161.94 305.803 1166.39 303.919 1176.77 296.143L1183.25 291.291L1185.28 282.721C1186.58 277.19 1188.29 272.856 1190.09 270.496C1191.62 268.486 1194.43 262.144 1196.33 256.403C1201.41 241.09 1201.21 234.738 1195.1 216.017C1189.36 198.43 1187.05 195.296 1180.54 196.233C1175.58 196.946 1175.16 196.706 1171.52 191.099C1170 188.762 1168.17 186.851 1167.44 186.851C1166.71 186.851 1161.71 185.014 1156.33 182.769C1150.37 180.28 1144.36 178.501 1140.93 178.213C1137.83 177.954 1133.49 177.343 1131.29 176.856C1126.44 175.781 1113.93 174.941 1111.64 175.534ZM363.475 660.849C363.156 661.645 362.919 661.408 362.871 660.244C362.828 659.19 363.064 658.6 363.396 658.932C363.728 659.264 363.764 660.127 363.475 660.849Z" fill="#F7F6F0"/>
<circle cx="599.663" cy="567.796" r="415.37" stroke="white" stroke-width="25"/>
<path d="M849.499 335.327C852.006 330.447 851.164 324.516 847.395 320.527C843.381 316.754 837.425 315.922 832.53 318.448C810.718 328.758 790.861 342.773 773.839 359.869L757.324 376.385L747.861 366.922C736.299 355.882 718.1 355.882 706.538 366.922C701.057 372.4 697.977 379.834 697.977 387.584C697.977 395.334 701.057 402.767 706.538 408.246L715.397 417.105L703.586 428.916L691.779 417.109C681.99 407.341 666.14 407.341 656.351 417.109L597.318 476.142C587.55 485.932 587.55 501.781 597.318 511.57L609.124 523.376L597.311 535.185L585.503 523.377C572.291 510.755 551.488 510.755 538.276 523.377C532.011 529.638 528.491 538.133 528.491 546.99C528.491 555.847 532.011 564.342 538.276 570.604L550.087 582.415L534.829 597.673C509.779 586.978 480.743 592.59 461.483 611.848C442.222 631.106 436.608 660.142 447.301 685.193L428.004 704.523C406.084 696.729 381.628 702.682 365.742 719.678C349.857 736.675 345.568 761.477 354.826 782.821C364.083 804.165 385.121 817.983 408.385 818C423.889 818.047 438.764 811.873 449.676 800.86C465.604 784.783 471.038 761.065 463.701 739.658L482.733 720.625C507.78 731.23 536.755 725.583 555.987 706.349C575.217 687.114 580.859 658.137 570.249 633.094L585.507 617.836L597.318 629.647C605.754 638.083 618.05 641.377 629.575 638.289C641.099 635.201 650.1 626.201 653.188 614.676C656.276 603.152 652.981 590.856 644.545 582.419L632.737 570.611L644.546 558.798L656.352 570.605C666.139 580.378 681.993 580.378 691.78 570.605L750.813 511.571C760.581 501.782 760.581 485.933 750.813 476.143L739.006 464.336L750.817 452.525L759.676 461.384C767.055 468.782 777.822 471.677 787.915 468.977C798.009 466.277 805.893 458.393 808.593 448.299C811.293 438.206 808.398 427.439 801 420.06L791.538 410.597L808.053 394.082C825.165 377.044 839.189 357.164 849.499 335.327ZM451.902 727.843C447.196 732.438 445.553 739.329 447.678 745.553C453.078 760.729 449.26 777.657 437.869 789.045C430.058 796.894 419.441 801.305 408.368 801.3C397.295 801.296 386.68 796.876 378.876 789.021C371.027 781.209 366.616 770.59 366.621 759.515C366.626 748.441 371.044 737.826 378.901 730.02C390.286 718.646 407.201 714.841 422.361 720.243C428.584 722.361 435.47 720.722 440.071 716.028L456.028 700.07C459.383 704.557 463.365 708.539 467.852 711.892L451.902 727.843ZM550.301 687.108C535.933 708.508 507.67 715.51 484.974 703.292C476.374 698.634 469.313 691.577 464.647 682.981C454.142 663.489 457.668 639.413 473.323 623.752C491.56 605.537 520.645 604.138 540.547 620.519C560.448 636.898 564.669 665.708 550.301 687.108ZM561.474 618.255C558.1 613.795 554.128 609.822 549.667 606.448L561.894 594.222L573.701 606.029L561.474 618.255ZM632.738 594.226C635.87 597.358 637.63 601.604 637.63 606.034C637.63 610.463 635.87 614.709 632.738 617.841C626.131 624.152 615.73 624.152 609.125 617.841L550.083 558.798C546.94 555.674 545.179 551.423 545.19 546.991C545.189 540.237 549.258 534.148 555.498 531.563C561.738 528.979 568.921 530.408 573.697 535.184L632.738 594.226ZM620.93 558.805L609.117 546.992L620.93 535.183L632.739 546.992L620.93 558.805ZM739.006 499.764L679.973 558.798C676.71 562.06 671.421 562.06 668.158 558.798L609.124 499.765C605.87 496.499 605.87 491.216 609.124 487.95L668.157 428.917C671.42 425.656 676.709 425.656 679.972 428.917L739.005 487.95C742.26 491.216 742.26 496.498 739.006 499.764ZM727.199 452.529L715.392 440.722L727.203 428.911L739.01 440.718L727.199 452.529ZM792.862 440.723C792.862 444.045 791.543 447.23 789.193 449.578C784.237 454.307 776.439 454.307 771.483 449.578L718.344 396.439C715.995 394.091 714.675 390.906 714.675 387.584C714.675 384.262 715.995 381.077 718.344 378.729C720.692 376.38 723.877 375.06 727.199 375.06C730.521 375.06 733.706 376.38 736.054 378.729L789.192 431.867C791.543 434.215 792.862 437.401 792.862 440.723ZM779.731 398.791L769.131 388.192L785.646 371.676C798.477 358.828 813.039 347.833 828.911 339.012C820.095 354.887 809.1 369.45 796.247 382.277L779.731 398.791Z" fill="#FF5D28"/>
<path d="M417.931 736.404C406.896 731.842 394.174 735.708 387.545 745.642C380.916 755.574 382.227 768.807 390.675 777.246C395.369 781.947 401.743 784.581 408.385 784.569C420.326 784.56 430.599 776.117 432.92 764.404C435.242 752.69 428.966 740.967 417.931 736.404ZM414.289 765.441C411.029 768.701 405.743 768.701 402.482 765.441C400.908 763.88 400.022 761.754 400.022 759.538C400.022 757.321 400.908 755.195 402.482 753.635C405.743 750.375 411.029 750.375 414.289 753.635C417.55 756.894 417.55 762.18 414.289 765.441Z" fill="#FF5D28"/>
<path d="M504.853 626.002C497.385 626.842 490.428 630.212 485.138 635.55C482.75 637.937 482.037 641.528 483.328 644.647C484.62 647.767 487.664 649.801 491.041 649.802L491.042 649.803C493.257 649.806 495.381 648.925 496.945 647.357C499.578 644.694 503.041 643.011 506.761 642.587C511.342 642.06 514.626 637.92 514.1 633.34C513.572 628.76 509.433 625.474 504.853 626.002Z" fill="#FF5D28"/>
<path d="M685.868 458.433C679.342 451.926 668.781 451.926 662.255 458.433L650.937 469.751C648.55 472.138 647.836 475.729 649.128 478.849C650.42 481.968 653.464 484.002 656.84 484.003C659.055 484.006 661.18 483.126 662.743 481.557L674.061 470.239L685.354 481.533C688.615 484.793 693.901 484.793 697.161 481.533C700.422 478.272 700.422 472.986 697.161 469.726L685.868 458.433Z" fill="#FF5D28"/>
</svg>
